<svg width="32" height="32" viewBox="0 0 32 32" fill="none" xmlns="http://www.w3.org/2000/svg">
    <path d="M2.18181 28.0051H7.27275V15.6414L3.93913 9.82031L0 10.1869V25.8233C0 27.0287 0.976375 28.0051 2.18181 28.0051Z" fill="#0085F7"/>
    <path d="M24.7266 28.0051H29.8175C31.0229 28.0051 31.9993 27.0287 31.9993 25.8233V10.1869L28.0659 9.82031L24.7266 15.6414V28.0051H24.7266Z" fill="#00A94B"/>
    <path d="M24.7268 6.18572L21.7363 11.8922L24.7268 15.6403L31.9995 10.1857V7.27666C31.9995 4.58029 28.9213 3.04029 26.7631 4.65847L24.7268 6.18572Z" fill="#FFBC00"/>
    <path fill-rule="evenodd" clip-rule="evenodd" d="M7.27339 15.6401L4.42383 9.62073L7.27339 6.18555L16.0006 12.731L24.7279 6.18555V15.6401L16.0006 22.1855L7.27339 15.6401Z" fill="#FF4131"/>
    <path d="M0 7.27666V10.1857L7.27275 15.6403V6.18572L5.23637 4.65847C3.07819 3.04029 0 4.58029 0 7.27666Z" fill="#E51C19"/>
</svg>
