<svg width="32" height="32" viewBox="0 0 32 32" fill="none" xmlns="http://www.w3.org/2000/svg">
    <path fill-rule="evenodd" clip-rule="evenodd" d="M16 0C6.988 0 0 6.60341 0 15.5186C0 20.1822 1.912 24.2139 5.024 26.9976C5.284 27.2296 5.444 27.5576 5.452 27.9095L5.54 30.7573C5.568 31.6652 6.504 32.2571 7.336 31.8892L10.512 30.4893C10.78 30.3693 11.084 30.3493 11.368 30.4253C12.828 30.8253 14.38 31.0412 16 31.0412C25.012 31.0412 32 24.4378 32 15.5226C32 6.60741 25.012 0 16 0Z" fill="url(#paint0_radial_2527_61852)"/>
    <path fill-rule="evenodd" clip-rule="evenodd" d="M6.39153 20.058L11.0915 12.6027C11.8395 11.4148 13.4395 11.1228 14.5635 11.9627L18.3035 14.7665C18.6475 15.0224 19.1195 15.0224 19.4595 14.7625L24.5075 10.9308C25.1795 10.4189 26.0595 11.2268 25.6115 11.9427L20.9075 19.3941C20.1595 20.582 18.5595 20.8739 17.4355 20.034L13.6955 17.2302C13.3515 16.9743 12.8795 16.9743 12.5395 17.2342L7.49152 21.0659C6.81953 21.5779 5.93953 20.7739 6.39153 20.058Z" fill="white"/>
    <defs>
        <radialGradient id="paint0_radial_2527_61852" cx="0" cy="0" r="1" gradientUnits="userSpaceOnUse" gradientTransform="translate(6.16 31.8283) scale(34.8672 34.8641)">
            <stop stop-color="#0099FF"/>
            <stop offset="0.6098" stop-color="#A033FF"/>
            <stop offset="0.9348" stop-color="#FF5280"/>
            <stop offset="1" stop-color="#FF7061"/>
        </radialGradient>
    </defs>
</svg>
