<svg width="33" height="32" viewBox="0 0 33 32" fill="none" xmlns="http://www.w3.org/2000/svg">
    <g clip-path="url(#clip0_2527_61855)">
        <path d="M6.21019 27.165C6.08502 27.1093 5.99462 27.0467 6.14065 26.9214C6.23106 26.8518 6.32841 26.7891 6.42577 26.7265C7.33676 26.1347 8.19211 25.4873 8.75539 24.5336C9.22827 23.74 9.15178 23.2736 8.56068 22.6889C5.26444 19.3892 3.81798 15.4421 4.54121 10.778C4.9515 8.14663 6.15456 5.87027 7.90699 3.89325C8.96402 2.6959 10.2227 1.72827 11.5996 0.920756C11.6831 0.872027 11.8013 0.858104 11.8152 0.7328C11.7874 0.663186 11.7387 0.68407 11.697 0.68407C9.35345 0.68407 7.00991 0.635341 4.67334 0.697993C2.43412 0.767606 0.500877 2.50098 0.507831 4.98618C0.521739 12.2469 0.507831 19.5075 0.507831 26.7752C0.507831 29.0307 2.22549 30.9172 4.47167 31.0007C6.37014 31.0773 8.26861 31.0146 10.174 31.0077C10.3131 31.0146 10.4522 31.0216 10.5913 31.0216H20.633C23.1365 31.0216 25.6399 31.0355 28.1434 31.0216C30.4661 31.0216 32.3507 29.142 32.3507 26.8239V26.7821V22.7098C32.3507 22.6123 32.3854 22.5079 32.3228 22.4035C32.1977 22.4104 32.149 22.5148 32.0794 22.5845C30.7304 23.9419 29.1379 25.0349 27.3924 25.8076C23.1156 27.6941 18.7623 27.8263 14.3465 26.3088C13.964 26.1695 13.5468 26.1556 13.1504 26.2531C12.5662 26.3993 11.989 26.5733 11.4119 26.7473C9.71506 27.2764 7.98349 27.5131 6.21019 27.165ZM11.2519 15.4352C11.3701 15.282 11.4327 15.1915 11.5023 15.101C12.4133 13.9454 13.3242 12.7898 14.2352 11.6273C14.4995 11.2932 14.7637 10.9521 14.9306 10.5483C15.1253 10.0888 14.9167 9.65724 14.4438 9.49017C14.2352 9.42752 14.0127 9.39967 13.7902 9.41359C12.5523 9.40663 11.3075 9.40663 10.0697 9.41359C9.89587 9.41359 9.72201 9.43448 9.55512 9.47625C9.16569 9.57371 8.92925 9.9705 9.0266 10.3673C9.09614 10.6318 9.30477 10.8407 9.56902 10.9033C9.73592 10.9451 9.90977 10.966 10.0836 10.959C10.8347 10.966 11.5927 10.959 12.3437 10.966C12.4272 10.966 12.5315 10.9103 12.5941 11.0356C12.5315 11.1191 12.4689 11.2027 12.4063 11.2792C11.3284 12.6437 10.2575 14.015 9.17959 15.3795C8.91534 15.7206 8.77626 16.0965 8.97097 16.5142C9.16569 16.9318 9.56207 17.0084 9.96541 17.0363C10.2853 17.0571 10.6121 17.0432 10.939 17.0432C12.0655 17.0432 13.1852 17.0502 14.3117 17.0363C14.9098 17.0293 15.2297 16.6673 15.1671 16.1104C15.1184 15.6718 14.8194 15.4421 14.263 15.4352C13.2825 15.4282 12.302 15.4352 11.2519 15.4352ZM19.3187 11.7735C18.4494 11.0147 17.4897 10.966 16.5509 11.5229C15.4105 12.1912 14.9932 13.2841 15.1323 14.5511C15.2644 15.7345 15.779 16.7021 17.0169 17.0989C17.7888 17.3495 18.505 17.259 19.1379 16.7439C19.3048 16.6116 19.3534 16.6395 19.4717 16.7857C19.7011 17.078 20.0975 17.1894 20.4452 17.0571C20.7929 16.9527 21.0224 16.6325 21.0224 16.2705C21.0294 14.8782 21.0363 13.486 21.0224 12.0937C21.0155 11.5368 20.4939 11.1818 19.9515 11.2932C19.6525 11.3558 19.4856 11.5577 19.3187 11.7735ZM24.1379 14.3561C24.11 16.0965 25.5495 17.4122 27.3576 17.2312C29.0196 17.0641 30.0975 15.818 30.0419 14.0568C29.9863 12.3165 28.6928 11.1261 26.9195 11.1818C25.2575 11.2305 24.0822 12.5671 24.1379 14.3561ZM23.5259 12.9708C23.5259 11.8779 23.5329 10.7919 23.5259 9.69901C23.5259 9.1421 23.1712 8.79404 22.6427 8.801C22.1281 8.80796 21.7874 9.15602 21.7804 9.69205C21.7735 10.0192 21.7804 10.3395 21.7804 10.6666V16.2009C21.7804 16.6325 22.0447 17.0084 22.3924 17.0989C22.8722 17.2312 23.366 16.9458 23.4911 16.4654C23.512 16.3819 23.5259 16.2984 23.5189 16.2079C23.5329 15.1289 23.5259 14.0498 23.5259 12.9708Z" fill="#FDFEFE"/>
        <path d="M10.1662 31.0144C8.26773 31.0144 6.36231 31.077 4.46384 31.0074C2.21766 30.9169 0.5 29.0304 0.5 26.7819C0.5 19.5212 0.513908 12.2605 0.5 4.99289C0.5 2.50769 2.44019 0.774317 4.67246 0.711665C7.00904 0.649013 9.35257 0.697742 11.6961 0.697742C11.7378 0.697742 11.7935 0.676858 11.8143 0.746472C11.8004 0.871776 11.6752 0.885699 11.5987 0.934428C10.2218 1.74194 8.96314 2.70957 7.90612 3.90692C6.16064 5.88394 4.95062 8.15334 4.54033 10.7917C3.81711 15.4488 5.27051 19.4029 8.5598 22.7025C9.14395 23.2943 9.22044 23.7537 8.75452 24.5473C8.19123 25.501 7.33588 26.1484 6.42489 26.7401C6.32753 26.7958 6.23018 26.8654 6.13282 26.9281C5.98678 27.0534 6.07719 27.116 6.20236 27.1717C6.23018 27.2344 6.26495 27.2901 6.30667 27.3458C7.10639 28.0558 7.86439 28.8146 8.6502 29.5386C9.01877 29.8797 9.38734 30.2347 9.742 30.5898C9.88803 30.722 10.1314 30.7638 10.1662 31.0144Z" fill="#0180C7"/>
        <path d="M10.167 31.0152C10.1322 30.7716 9.8888 30.7298 9.74276 30.5836C9.3881 30.2216 9.01953 29.8736 8.65097 29.5325C7.86515 28.8085 7.10716 28.0497 6.30744 27.3396C6.26571 27.2839 6.23094 27.2283 6.20312 27.1656C7.97642 27.5137 9.70799 27.277 11.4117 26.7549C11.9889 26.5809 12.5661 26.4068 13.1503 26.2606C13.5467 26.1562 13.9639 26.1771 14.3464 26.3163C18.7553 27.8339 23.1085 27.6947 27.3923 25.8151C29.1377 25.0424 30.7302 23.9564 32.0793 22.599C32.1489 22.5293 32.1975 22.4249 32.3227 22.418C32.3853 22.5154 32.3505 22.6198 32.3505 22.7243V26.7967C32.3644 29.1217 30.5007 31.0152 28.1781 31.0361H28.1433C25.6398 31.05 23.1364 31.0361 20.6329 31.0361H10.5842C10.4451 31.0222 10.306 31.0152 10.167 31.0152Z" fill="#0172B1"/>
        <path d="M11.2519 15.4358C12.302 15.4358 13.2895 15.4289 14.27 15.4358C14.8194 15.4428 15.1184 15.6725 15.1741 16.1111C15.2366 16.661 14.9168 17.03 14.3187 17.0369C13.1921 17.0509 12.0725 17.0439 10.946 17.0439C10.6191 17.0439 10.2992 17.0578 9.97239 17.0369C9.56905 17.0161 9.17267 16.9325 8.97796 16.5148C8.78324 16.0972 8.92232 15.7213 9.18658 15.3801C10.2575 14.0157 11.3354 12.6443 12.4133 11.2799C12.4759 11.1964 12.5385 11.1128 12.601 11.0363C12.5315 10.9179 12.4341 10.9736 12.3507 10.9667C11.5997 10.9597 10.8417 10.9667 10.0906 10.9597C9.91676 10.9597 9.74291 10.9388 9.57601 10.904C9.17962 10.8135 8.93623 10.4167 9.02663 10.0269C9.08922 9.76234 9.29784 9.54654 9.5621 9.48389C9.729 9.44212 9.90285 9.42124 10.0767 9.42124C11.3145 9.41428 12.5593 9.41428 13.7971 9.42124C14.0197 9.41428 14.2353 9.44212 14.4508 9.49781C14.9237 9.65792 15.1254 10.0965 14.9376 10.5559C14.7707 10.9527 14.5065 11.2938 14.2422 11.6349C13.3312 12.7975 12.4202 13.9531 11.5092 15.1017C11.4328 15.1922 11.3632 15.2827 11.2519 15.4358Z" fill="#0180C7"/>
        <path d="M19.3187 11.7742C19.4856 11.5584 19.6595 11.3565 19.9446 11.3009C20.494 11.1895 21.0086 11.5445 21.0155 12.1014C21.0364 13.4937 21.0294 14.8859 21.0155 16.2782C21.0155 16.6402 20.7791 16.9604 20.4383 17.0648C20.0906 17.1971 19.6943 17.0927 19.4648 16.7934C19.3465 16.6472 19.2979 16.6193 19.131 16.7516C18.4981 17.2667 17.7819 17.3572 17.01 17.1066C15.7721 16.7029 15.2645 15.7352 15.1254 14.5588C14.9794 13.2848 15.4036 12.1989 16.544 11.5306C17.4898 10.9667 18.4495 11.0154 19.3187 11.7742ZM16.857 14.3151C16.8709 14.6214 16.9682 14.9138 17.149 15.1574C17.5246 15.6587 18.2408 15.7631 18.7485 15.3872C18.8319 15.3245 18.9084 15.2479 18.978 15.1574C19.3674 14.6284 19.3674 13.7582 18.978 13.2291C18.7833 12.9577 18.4773 12.7975 18.1504 12.7906C17.3855 12.7419 16.85 13.3336 16.857 14.3151ZM24.1379 14.3569C24.0823 12.5678 25.2575 11.2312 26.9265 11.1825C28.6998 11.1268 29.9933 12.3172 30.0489 14.0575C30.1045 15.8188 29.0267 17.0648 27.3646 17.2319C25.5496 17.4129 24.1101 16.0972 24.1379 14.3569ZM25.8834 14.1898C25.8695 14.5379 25.9738 14.879 26.1824 15.1644C26.5649 15.6656 27.2812 15.7631 27.7819 15.3732C27.8584 15.3176 27.921 15.2479 27.9835 15.1783C28.3869 14.6493 28.3869 13.7582 27.9905 13.2291C27.7958 12.9646 27.4898 12.7975 27.163 12.7906C26.4119 12.7488 25.8834 13.3196 25.8834 14.1898ZM23.526 12.9716C23.526 14.0506 23.5329 15.1296 23.526 16.2086C23.5329 16.7029 23.1435 17.1136 22.6497 17.1275C22.5663 17.1275 22.4759 17.1205 22.3924 17.0997C22.0447 17.0092 21.7805 16.6402 21.7805 16.2016V10.6674C21.7805 10.3402 21.7735 10.02 21.7805 9.69279C21.7874 9.15676 22.1282 8.8087 22.6428 8.8087C23.1713 8.80173 23.526 9.1498 23.526 9.70671C23.5329 10.7927 23.526 11.8856 23.526 12.9716Z" fill="#0180C7"/>
        <path d="M16.8555 14.3148C16.8486 13.3333 17.384 12.7416 18.142 12.7833C18.4689 12.7972 18.7749 12.9574 18.9696 13.2288C19.359 13.751 19.359 14.6281 18.9696 15.1571C18.5941 15.6584 17.8778 15.7628 17.3701 15.3869C17.2867 15.3242 17.2102 15.2476 17.1407 15.1571C16.9668 14.9135 16.8694 14.6211 16.8555 14.3148ZM25.882 14.1895C25.882 13.3263 26.4105 12.7485 27.1615 12.7903C27.4884 12.7972 27.7943 12.9643 27.9891 13.2288C28.3854 13.7579 28.3854 14.6559 27.9821 15.178C27.5927 15.6723 26.8694 15.7558 26.3757 15.366C26.2992 15.3103 26.2366 15.2407 26.181 15.1641C25.9724 14.8787 25.875 14.5376 25.882 14.1895Z" fill="#FDFEFE"/>
        <path d="M5.05532 0.71875H27.8717C30.3682 0.71875 32.3919 2.7445 32.3919 5.24362V26.3365C32.3919 28.8356 30.3682 30.8614 27.8717 30.8614H5.05532C2.5588 30.8614 0.535156 28.8356 0.535156 26.3365V5.24362C0.535156 2.7445 2.5588 0.71875 5.05532 0.71875Z" stroke="#0180C7" stroke-width="0.174072" stroke-miterlimit="10"/>
    </g>
    <defs>
        <clipPath id="clip0_2527_61855">
            <rect width="32" height="32" fill="white" transform="translate(0.5)"/>
        </clipPath>
    </defs>
</svg>
